# Blender 4.4.0
# www.blender.org
o Mball.003
v 3.141398 2.703080 -0.964125
v 1.177942 2.987316 0.005190
v -1.261102 -2.204689 1.174982
v 1.237807 -0.042012 -0.234594
v 0.324587 0.917184 -0.966905
v -0.244356 -1.644977 -2.661118
v -0.612307 0.134256 2.579062
v -2.390692 0.248037 -0.176055
v 1.415796 -1.759868 -1.262255
vn 0.8357 0.4211 -0.3525
vn -0.0776 0.9930 0.0888
vn -0.2898 -0.8201 0.4934
vn 0.9605 -0.1950 0.1984
vn -0.0076 0.3714 -0.9284
vn -0.1022 -0.3541 -0.9296
vn -0.0427 0.0446 0.9981
vn -0.9454 0.2790 -0.1684
vn 0.8452 -0.4926 -0.2073
vt 0.345936 0.577417
vt 0.716573 0.408061
vt 0.749287 0.582144
vt 0.218639 0.899258
vt 0.892209 0.486981
vt 0.585174 0.196321
vt 0.295918 0.326394
vt 0.207097 0.099764
vt 0.556212 0.071464
vt 0.116017 0.461470
vt 0.873021 0.678047
vt 0.487162 0.857203
s 1
f 4/1/4 5/2/5 1/3/1
f 3/4/3 4/1/4 1/3/1
f 2/5/2 5/2/5 8/6/8
f 8/6/8 6/7/6 3/8/3
f 2/5/2 8/6/8 7/9/7
f 9/10/9 4/1/4 3/4/3
f 5/2/5 4/1/4 9/10/9
f 1/3/1 2/11/2 7/12/7
f 1/3/1 7/12/7 3/4/3
f 1/3/1 5/2/5 2/11/2
f 5/2/5 9/10/9 6/7/6
f 5/2/5 6/7/6 8/6/8
f 8/6/8 3/8/3 7/9/7
f 6/7/6 9/10/9 3/8/3
