# Blender 4.4.0
# www.blender.org
o ring
v -5.882872 -5.882872 1.000000
v -5.882872 5.882872 1.000000
v -5.882872 -5.882872 -1.000000
v -5.882872 5.882872 -1.000000
v 5.882872 -5.882872 1.000000
v 5.882872 5.882872 1.000000
v 5.882872 -5.882872 -1.000000
v 5.882872 5.882872 -1.000000
v -4.765488 -4.765488 1.000000
v -4.765488 4.765488 1.000000
v 4.765488 4.765488 1.000000
v 4.765488 -4.765488 1.000000
v -4.765488 4.765488 -1.000000
v -4.765488 -4.765488 -1.000000
v 4.765488 -4.765488 -1.000000
v 4.765488 4.765488 -1.000000
vn -1.0000 -0.0000 -0.0000
vn -0.0000 -0.0000 -1.0000
vn 1.0000 -0.0000 -0.0000
vn -0.0000 -0.0000 1.0000
vn -0.0000 -1.0000 -0.0000
vn -0.0000 1.0000 -0.0000
vt 0.033574 0.380049
vt 0.959792 0.263674
vt 0.959792 0.380049
vt 0.032521 0.234574
vt 0.870776 0.169556
vt 0.958739 0.234574
vt 0.033574 0.263674
vt 0.120018 0.139995
vt 0.870311 0.023620
vt 0.870311 0.139995
vt 0.120018 0.023620
vt 0.120483 0.169556
s 0
f 2/1/1 3/2/1 1/3/1
f 8/4/2 13/5/2 4/6/2
f 8/1/3 5/2/3 7/3/3
f 1/4/4 10/5/4 2/6/4
f 7/2/5 1/1/5 3/7/5
f 4/2/6 6/1/6 8/7/6
f 10/8/5 16/9/5 11/10/5
f 5/4/4 9/5/4 1/6/4
f 2/4/4 11/5/4 6/6/4
f 6/4/4 12/5/4 5/6/4
f 12/8/6 14/9/6 9/10/6
f 4/4/2 14/5/2 3/6/2
f 7/4/2 16/5/2 8/6/2
f 3/4/2 15/5/2 7/6/2
f 14/10/3 10/11/3 9/9/3
f 11/8/1 15/9/1 12/10/1
f 2/1/1 4/7/1 3/2/1
f 8/4/2 16/12/2 13/5/2
f 8/1/3 6/7/3 5/2/3
f 1/4/4 9/12/4 10/5/4
f 7/2/5 5/3/5 1/1/5
f 4/2/6 2/3/6 6/1/6
f 10/8/5 13/11/5 16/9/5
f 5/4/4 12/12/4 9/5/4
f 2/4/4 10/12/4 11/5/4
f 6/4/4 11/12/4 12/5/4
f 12/8/6 15/11/6 14/9/6
f 4/4/2 13/12/2 14/5/2
f 7/4/2 15/12/2 16/5/2
f 3/4/2 14/12/2 15/5/2
f 14/10/3 13/8/3 10/11/3
f 11/8/1 16/11/1 15/9/1
