# Blender 4.4.0
# www.blender.org
o ring0
v -5.882872 -5.882872 1.000000
v -5.882872 5.882872 1.000000
v -5.882872 -5.882872 -1.000000
v -5.882872 5.882872 -1.000000
v 5.882872 -5.882872 1.000000
v 5.882872 5.882872 1.000000
v 5.882872 -5.882872 -1.000000
v 5.882872 5.882872 -1.000000
vn -0.0000 -0.0000 1.0000
vn -0.0000 -0.0000 -1.0000
vt 0.050925 0.973397
vt 0.050925 0.441215
vt 0.583107 0.973397
vt 0.583107 0.441215
s 0
f 2/1/1 1/2/1 6/3/1
f 1/2/1 5/4/1 6/3/1
f 3/2/2 4/1/2 8/3/2
f 7/4/2 3/2/2 8/3/2
